<?xml version="1.0" encoding="UTF-8" standalone="no"?>
<svg
   xmlns:dc="http://purl.org/dc/elements/1.1/"
   xmlns:cc="http://creativecommons.org/ns#"
   xmlns:rdf="http://www.w3.org/1999/02/22-rdf-syntax-ns#"
   xmlns:svg="http://www.w3.org/2000/svg"
   xmlns="http://www.w3.org/2000/svg"
   xmlns:sodipodi="http://sodipodi.sourceforge.net/DTD/sodipodi-0.dtd"
   xmlns:inkscape="http://www.inkscape.org/namespaces/inkscape"
   version="1.0"
   width="360.19916"
   height="128.58199"
   id="svg3118"
   inkscape:version="0.91 r13725"
   sodipodi:docname="Eastpak_logo.svg">
  <metadata
     id="metadata74">
    <rdf:RDF>
      <cc:Work
         rdf:about="">
        <dc:format>image/svg+xml</dc:format>
        <dc:type
           rdf:resource="http://purl.org/dc/dcmitype/StillImage" />
        <dc:title></dc:title>
      </cc:Work>
    </rdf:RDF>
  </metadata>
  <sodipodi:namedview
     pagecolor="#ffffff"
     bordercolor="#666666"
     borderopacity="1"
     objecttolerance="10"
     gridtolerance="10"
     guidetolerance="10"
     inkscape:pageopacity="0"
     inkscape:pageshadow="2"
     inkscape:window-width="1363"
     inkscape:window-height="793"
     id="namedview72"
     showgrid="false"
     fit-margin-top="0"
     fit-margin-left="0"
     fit-margin-right="0"
     fit-margin-bottom="0"
     inkscape:zoom="1"
     inkscape:cx="180.35673"
     inkscape:cy="52.293465"
     inkscape:window-x="474"
     inkscape:window-y="157"
     inkscape:window-maximized="0"
     inkscape:current-layer="svg3118" />
  <defs
     id="defs3120">
    <clipPath
       id="clipPath303">
      <path
         d="m 0,867.99 1299,0 L 1299,0 0,0 0,867.99 Z"
         id="path305"
         inkscape:connector-curvature="0" />
    </clipPath>
    <clipPath
       id="clipPath297">
      <path
         d="m 0,0 1299,0 0,868 L 0,868 0,0 Z"
         id="path299"
         inkscape:connector-curvature="0" />
    </clipPath>
    <clipPath
       id="clipPath291">
      <path
         d="m 28,840 1243,0 0,-812 -1243,0 0,812 z"
         id="path293"
         inkscape:connector-curvature="0" />
    </clipPath>
    <clipPath
       id="clipPath285">
      <path
         d="m 90.72,723.06 196.99,0 0,-63.4 -196.99,0 0,63.4 z"
         id="path287"
         inkscape:connector-curvature="0" />
    </clipPath>
  </defs>
  <g
     id="g4575"
     transform="matrix(0.40103694,0,0,0.40103694,424.64125,36.326498)">
    <path
       d="m -870.55178,24.928285 0.12436,16.551338 -51.46003,0 0,18.535781 47.25325,0 0.12436,17.767951 -47.37761,0 0,18.622289 52.44413,0 -0.18384,17.194796 -82.96218,0 -0.15681,-88.672155 82.19437,0"
       id="path315"
       style="fill:#000000;fill-opacity:1;fill-rule:nonzero;stroke:none"
       inkscape:connector-curvature="0" />
    <path
       inkscape:connector-curvature="0"
       id="path317"
       d="m -822.03868,24.927767 -40.32675,88.671963 28.89148,0 7.13694,-17.193362 41.25072,0 7.22994,17.193362 31.82711,0 -40.63002,-88.671963 -35.37942,0 z m 15.41621,17.405646 13.36609,35.531057 0.0103,0 0,0.02629 -0.0103,-0.02629 -26.25101,0 12.88492,-35.531057 z"
       style="fill:#000000;fill-opacity:1;fill-rule:nonzero;stroke:none" />
    <path
       d="m -717.70736,85.591307 c -0.0107,4.174334 2.14664,8.04046 6.00737,10.05192 7.09961,3.411929 18.53036,4.206787 25.02978,-0.881365 2.01146,-1.849252 3.40652,-4.785338 2.9469,-7.872837 -2.30344,-8.348668 -13.2746,-6.66704 -20.68782,-8.689319 -10.50073,-2.027692 -20.22822,-4.823193 -29.6475,-9.16515 -6.94281,-3.103711 -11.25773,-9.911336 -11.0901,-18.249197 -0.44339,-9.738309 5.74782,-17.913939 14.25329,-21.915247 15.77271,-7.694405 36.77955,-7.353756 54.07709,-3.152382 9.41929,2.487302 19.76319,8.997527 21.90443,19.20086 0.30821,1.849252 0.61642,3.703906 0.45421,5.55856 l -29.19872,-0.04865 c -0.7624,-4.174334 -3.40651,-7.667357 -7.5538,-9.127295 -6.05063,-2.135835 -16.98932,-3.584956 -21.47727,2.584629 -1.39506,1.854654 -2.01688,4.477129 -1.24906,6.953614 2.76846,5.412572 9.25707,5.574792 14.50743,6.975249 17.91394,4.358179 42.78692,3.936413 48.16164,25.73271 1.53024,8.191862 -2.0385,15.599684 -7.91609,20.222803 -16.09173,12.02555 -41.27291,12.59871 -62.58797,9.15975 -11.43076,-2.3359 -21.61245,-8.38111 -24.52691,-20.12548 -0.61642,-2.31967 -0.76782,-4.790751 -1.07063,-7.267237 l 29.66373,0.05403"
       id="path325"
       style="fill:#000000;fill-opacity:1;fill-rule:nonzero;stroke:none"
       inkscape:connector-curvature="0" />
    <path
       d="m -561.73219,24.928285 0,16.86496 -28.89049,0 0,71.807195 -29.58263,0 0,-71.807195 c 0.30281,0.0052 -30.51805,0 -30.51805,0 l 0,-16.86496 89.00739,0.0649 -0.0163,-0.0649"
       id="path335"
       style="fill:#000000;fill-opacity:1;fill-rule:nonzero;stroke:none"
       inkscape:connector-curvature="0" />
    <path
       inkscape:connector-curvature="0"
       id="path341"
       d="m -553.98887,24.927767 0,88.671963 c 0,0 19.26056,0.14058 28.68526,0 l 0,-32.922938 c 12.24723,0.156807 17.56742,-0.27706 26.83531,-0.260808 11.43075,-0.751599 22.55849,-3.362987 29.99335,-11.225016 6.34261,-6.477782 8.21811,-17.600203 5.14142,-26.722094 -5.22873,-13.13942 -20.05514,-16.43804 -33.18375,-17.541107 l -57.47159,0 z m 40.13266,16.049028 c 6.28885,-0.111902 12.2687,0.28914 16.99321,3.293505 3.39571,2.476476 4.46638,6.644299 3.68776,10.818633 -0.77323,4.628531 -5.26657,7.560197 -9.7491,8.479419 -8.95969,0.600197 -13.2682,0.595341 -22.37927,0.270912 l 0.17792,-22.55921 -0.17792,0 c 3.78975,0.01625 7.6741,-0.23613 11.4474,-0.303259 z"
       style="fill:#000000;fill-opacity:1;fill-rule:nonzero;stroke:none" />
    <path
       inkscape:connector-curvature="0"
       id="path345"
       d="m -437.96806,24.988418 -40.16299,88.611312 28.58214,0 6.82357,-16.750582 42.02304,0 7.38764,16.750582 31.66943,0 -40.7857,-88.611312 -35.53713,0 z m 15.26456,17.864604 13.53391,35.531057 -26.26112,0 12.72721,-35.531057 z"
       style="fill:#000000;fill-opacity:1;fill-rule:nonzero;stroke:none" />
    <path
       d="m -327.99652,24.987766 0,38.574738 31.24262,-38.574738 32.90262,0 -33.28112,38.628804 c 0,0 39.15872,49.67566 39.30471,49.98387 l -35.0709,0 -35.09793,-46.020408 0,46.020408 -27.58197,0 0,-88.612674 27.58197,0"
       id="path349"
       style="fill:#000000;fill-opacity:1;fill-rule:nonzero;stroke:none"
       inkscape:connector-curvature="0" />
    <g
       id="text4521"
       style="font-style:normal;font-weight:normal;font-size:33.16687775px;line-height:125%;font-family:sans-serif;letter-spacing:0px;word-spacing:0px;fill:#000000;fill-opacity:1;stroke:none;stroke-width:1px;stroke-linecap:butt;stroke-linejoin:miter;stroke-opacity:1">
      <path
         id="path4573"
         style="font-style:normal;font-variant:normal;font-weight:bold;font-stretch:normal;font-family:sans-serif;-inkscape-font-specification:'sans-serif Bold'"
         d="m -251.46252,34.949575 q -1.95957,0 -3.64382,0.71257 -1.68426,0.696374 -3.0932,2.105319 -1.40895,1.408944 -2.12152,3.0932 -0.69637,1.668061 -0.69637,3.643822 0,1.959567 0.69637,3.643822 0.71257,1.668061 2.12152,3.077005 1.39275,1.39275 3.077,2.089125 1.70045,0.696375 3.66002,0.696375 1.99196,0 3.66002,-0.68018 1.66806,-0.696375 3.077,-2.10532 1.40895,-1.408944 2.10532,-3.077005 0.71257,-1.684255 0.71257,-3.643822 0,-1.975761 -0.71257,-3.643822 -0.69637,-1.684256 -2.10532,-3.0932 -1.42514,-1.425139 -3.10939,-2.121514 -1.66806,-0.696375 -3.62763,-0.696375 z m -0.9231,4.777455 -0.56682,0 0,3.352317 0.56682,0 q 1.26319,0 1.89479,-0.421064 0.64779,-0.437259 0.64779,-1.279387 0,-0.842127 -0.6316,-1.246996 -0.6154,-0.40487 -1.91098,-0.40487 z m 0.5992,-2.234877 q 2.85028,0 4.25923,0.971686 1.40894,0.955491 1.40894,2.915057 0,1.39275 -0.85832,2.299657 -0.84213,0.906907 -2.39683,1.182218 0.66399,0.356285 1.23081,1.004075 0.58301,0.647791 1.05266,1.587087 l 1.79761,3.579043 -3.7086,0 -1.73284,-3.449485 q -0.6154,-1.263191 -1.08505,-1.781424 -0.46964,-0.534427 -0.93929,-0.534427 l -0.19434,0 0,5.765336 -3.44948,0 0,-13.538823 4.6155,0 z m 0.3239,-5.036572 q 2.4616,0 4.58312,0.890712 2.13771,0.890712 3.90294,2.655942 1.76523,1.765229 2.63974,3.886743 0.87452,2.121514 0.87452,4.615508 0,2.461604 -0.87452,4.583118 -0.87451,2.10532 -2.63974,3.870549 -1.76523,1.765229 -3.90294,2.655941 -2.12152,0.890713 -4.58312,0.890713 -2.4616,0 -4.59931,-0.890713 -2.12152,-0.890712 -3.88675,-2.655941 -1.76523,-1.765229 -2.63974,-3.870549 -0.87452,-2.121514 -0.87452,-4.583118 0,-2.493994 0.87452,-4.615508 0.87451,-2.121514 2.63974,-3.886743 1.76523,-1.76523 3.88675,-2.655942 2.13771,-0.890712 4.59931,-0.890712 z"
         inkscape:connector-curvature="0" />
    </g>
    <path
       id="path4525"
       d="m -609.77344,-88.087891 c -13.0249,0 -25.77781,0.865045 -38.16406,2.515625 -102.49495,3.08573 -199.08986,18.524736 -272.76562,44.021485 -41.38221,14.321009 -73.86327,31.207284 -96.26568,49.9238279 -22.402,18.7165441 -34.9042,39.5800501 -34.9042,61.3574221 0,21.777372 12.5022,42.638921 34.9042,61.355471 22.40241,18.71654 54.88346,35.60477 96.26568,49.92578 73.67577,25.49675 170.27067,40.93576 272.76562,44.02148 12.38625,1.65059 25.13916,2.51563 38.16406,2.51563 13.0249,0 25.77783,-0.86504 38.16406,-2.51563 102.4953,-3.08572 199.09181,-18.52473 272.76758,-44.02148 41.3822,-14.32101 73.86149,-31.20924 96.26368,-49.92578 22.40215,-18.71655 34.90429,-39.578101 34.90429,-61.355471 0,-21.777371 -12.50215,-42.640879 -34.90429,-61.3574221 -22.40217,-18.7165429 -54.88148,-35.6028189 -96.26368,-49.9238279 -73.67577,-25.496748 -170.27228,-40.935755 -272.76758,-44.021485 -12.38624,-1.65058 -25.13916,-2.515625 -38.16406,-2.515625 z m 0,10.773438 c 3.73643,0 7.46652,0.0217 11.19141,0.05664 23.59644,3.647424 44.9618,18.712026 61.31641,41.794921 2.55025,3.59945 4.96879,7.397035 7.25195,11.365235 l -159.89649,0.664062 c 2.39347,-4.20901 4.93712,-8.230099 7.62891,-12.029297 16.35461,-23.082895 37.71996,-38.147493 61.31641,-41.794921 3.72488,-0.03494 7.45498,-0.05664 11.1914,-0.05664 z m -87.64258,3.091797 c -23.38577,7.796843 -44.55074,18.630984 -62.58398,31.863281 -19.58203,14.368753 -35.49034,31.640535 -46.43164,50.90625 l 11.58984,0 c 4.74134,-7.55619057 10.33491,-14.7839875 16.71094,-21.615234 l 71.99805,-0.298829 c -3.09611,6.964394 -5.79726,14.29412877 -8.09375,21.914063 l 10.43945,0 c 2.45683,-7.69697705 5.34561,-15.0469423 8.64258,-21.958984 l 170.39844,-0.708985 c 3.43842,7.1194187 6.44665,14.70646411 8.98828,22.667969 l 10.44336,0 c -2.38408,-7.91264412 -5.20807,-15.5096497 -8.45313,-22.712891 l 70.44336,-0.292968 -0.002,-0.628907 c 7.17617,7.4216112 13.41871,15.32939091 18.6289,23.634766 l 11.58204,0 c -10.94131,-19.265715 -26.8496,-36.537497 -46.43165,-50.90625 -18.03323,-13.232297 -39.19821,-24.066437 -62.58398,-31.863281 82.99807,5.90113 159.87473,20.084705 220.39648,41.029297 40.69824,14.084311 72.31419,30.6629913 93.48829,48.353515 21.17409,17.690525 31.72851,36.176495 31.72851,54.570313 0,18.393818 -10.55442,36.879791 -31.72851,54.570311 -21.1741,17.69053 -52.79005,34.26921 -93.48829,48.35352 -60.52177,20.94459 -137.39841,35.12872 -220.39648,41.02929 23.38577,-7.79684 44.55078,-18.63098 62.58398,-31.86328 22.4662,-16.48507 40.09281,-36.79088 50.93165,-59.54687 l -11.11719,0 c -6.02976,11.50505 -13.98845,22.34489 -23.62891,32.30859 l -0.004,-1.03906 -70.4961,0.29297 c 4.45164,-9.84692 8.1197,-20.42696 10.93164,-31.5625 l -10.30859,0 c -3.00756,11.26495 -6.93003,21.87334 -11.65625,31.60742 l -169.41211,0.70312 c -4.87921,-9.9262 -8.92336,-20.77386 -12.00391,-32.31054 l -10.30468,0 c 2.88802,11.43492 6.67918,22.2837 11.29296,32.35547 l -70.5332,0.29297 c -9.78893,-10.05716 -17.86051,-21.01222 -23.95898,-32.64844 l -11.1211,0 c 7.30261,15.32981 17.68314,29.54853 30.55469,42.23437 l 0.002,0.4336 0.4375,-0.002 c 6.11564,5.98469 12.78171,11.62727 19.94141,16.88086 18.03324,13.2323 39.19821,24.06644 62.58398,31.86328 -82.99806,-5.90057 -159.87468,-20.0847 -220.39648,-41.02929 -40.69823,-14.08431 -72.3123,-30.66299 -93.4863,-48.35352 -21.1741,-17.69052 -31.7305,-36.176492 -31.7305,-54.570311 0,-18.393819 10.5564,-36.879787 31.7305,-54.570313 21.174,-17.6905248 52.78807,-34.269204 93.4863,-48.353515 60.5218,-20.944592 137.39842,-35.128168 220.39648,-41.029297 z m 41.0293,0.05469 c -12.84804,8.070005 -24.36795,19.329742 -34.01758,32.949219 -3.94007,5.561027 -7.576,11.524605 -10.88476,17.832031 l -66.59375,0.275391 c 4.33372,-3.893786 8.93069,-7.634283 13.78906,-11.199219 26.2908,-19.291463 59.95698,-33.397598 97.70703,-39.857422 z m 93.22656,0 c 37.75006,6.459824 71.41622,20.565959 97.70704,39.857422 4.31292,3.164709 8.41728,6.4694 12.31835,9.894531 l -65.51757,0.271485 c -3.20197,-6.028541 -6.70759,-11.735384 -10.49024,-17.074219 -9.64962,-13.619477 -21.16954,-24.879214 -34.01758,-32.949219 z m 110.36719,237.748046 c -4.00128,3.53162 -8.22245,6.93318 -12.66015,10.18945 -26.29073,19.29141 -59.95712,33.39562 -97.70704,39.85547 12.84761,-8.07042 24.36822,-19.32816 34.01758,-32.94727 3.73,-5.26451 7.18972,-10.88664 10.35547,-16.82226 l 65.99414,-0.27539 z m -77.41797,0.32226 c -2.22494,3.84344 -4.57819,7.52419 -7.05468,11.01954 -16.35461,23.08287 -37.71997,38.14749 -61.31641,41.79492 -3.72489,0.0349 -7.45498,0.0566 -11.19141,0.0566 -3.73642,0 -7.46652,-0.0217 -11.1914,-0.0566 -23.59645,-3.64744 -44.9618,-18.71206 -61.31641,-41.79492 -2.33518,-3.29588 -4.56371,-6.75325 -6.67578,-10.35938 l 158.74609,-0.66016 z m -170.13867,0.70704 c 3.05483,5.65662 6.37441,11.02839 9.94531,16.06835 9.64936,13.61911 21.16997,24.87685 34.01758,32.94727 -37.74992,-6.45985 -71.41631,-20.56406 -97.70703,-39.85547 -3.8897,-2.85415 -7.6064,-5.82389 -11.16211,-8.89062 l 64.90625,-0.26953 z"
       style="color:#000000;font-style:normal;font-variant:normal;font-weight:normal;font-stretch:normal;font-size:medium;line-height:normal;font-family:sans-serif;text-indent:0;text-align:start;text-decoration:none;text-decoration-line:none;text-decoration-style:solid;text-decoration-color:#000000;letter-spacing:normal;word-spacing:normal;text-transform:none;direction:ltr;block-progression:tb;writing-mode:lr-tb;baseline-shift:baseline;text-anchor:start;white-space:normal;clip-rule:nonzero;display:inline;overflow:visible;visibility:visible;opacity:1;isolation:auto;mix-blend-mode:normal;color-interpolation:sRGB;color-interpolation-filters:linearRGB;solid-color:#000000;solid-opacity:1;fill:#000000;fill-opacity:1;fill-rule:nonzero;stroke:none;stroke-width:8.84284592;stroke-linecap:butt;stroke-linejoin:miter;stroke-miterlimit:4;stroke-dasharray:none;stroke-dashoffset:0;stroke-opacity:1;color-rendering:auto;image-rendering:auto;shape-rendering:auto;text-rendering:auto;enable-background:accumulate"
       inkscape:connector-curvature="0" />
    <g
       id="text4536"
       style="font-style:normal;font-weight:normal;font-size:27.05628014px;line-height:125%;font-family:sans-serif;letter-spacing:0px;word-spacing:0px;fill:#000000;fill-opacity:1;stroke:none;stroke-width:1px;stroke-linecap:butt;stroke-linejoin:miter;stroke-opacity:1">
      <path
         id="path4560"
         style="font-style:normal;font-variant:normal;font-weight:bold;font-stretch:normal;font-family:sans-serif;-inkscape-font-specification:'sans-serif Bold'"
         d="m -647.37661,122.63324 5.08627,0 0,11.82391 q 0,2.44405 0.79266,3.50094 0.80588,1.04367 2.61579,1.04367 1.82313,0 2.61579,-1.04367 0.80588,-1.05689 0.80588,-3.50094 l 0,-11.82391 5.08626,0 0,11.82391 q 0,4.18791 -2.10056,6.23563 -2.10056,2.04772 -6.40737,2.04772 -4.2936,0 -6.39416,-2.04772 -2.10056,-2.04772 -2.10056,-6.23563 l 0,-11.82391 z"
         inkscape:connector-curvature="0" />
      <path
         id="path4562"
         style="font-style:normal;font-variant:normal;font-weight:bold;font-stretch:normal;font-family:sans-serif;-inkscape-font-specification:'sans-serif Bold'"
         d="m -625.11595,137.24469 4.75599,0 0,5.11269 -4.75599,0 0,-5.11269 z"
         inkscape:connector-curvature="0" />
      <path
         id="path4564"
         style="font-style:normal;font-variant:normal;font-weight:bold;font-stretch:normal;font-family:sans-serif;-inkscape-font-specification:'sans-serif Bold'"
         d="m -601.36244,123.25416 0,4.1747 q -1.62496,-0.72661 -3.17066,-1.09652 -1.54569,-0.36991 -2.91964,-0.36991 -1.82313,0 -2.69506,0.50202 -0.87193,0.50202 -0.87193,1.55891 0,0.79266 0.58128,1.24184 0.5945,0.43597 2.1402,0.75303 l 2.16661,0.43597 q 3.28956,0.66055 4.67672,2.00808 1.38717,1.34753 1.38717,3.83121 0,3.26314 -1.94203,4.86168 -1.92882,1.58533 -5.90535,1.58533 -1.87597,0 -3.76516,-0.3567 -1.88918,-0.3567 -3.77836,-1.05689 l 0,-4.2936 q 1.88918,1.00404 3.64625,1.51928 1.77029,0.50202 3.40846,0.50202 1.6646,0 2.54974,-0.55487 0.88514,-0.55486 0.88514,-1.58533 0,-0.92477 -0.60771,-1.42679 -0.5945,-0.50202 -2.3912,-0.89836 l -1.96845,-0.43596 q -2.95929,-0.63413 -4.33324,-2.0213 -1.36074,-1.38716 -1.36074,-3.73873 0,-2.94607 1.9024,-4.5314 1.90239,-1.58533 5.46938,-1.58533 1.62496,0 3.3424,0.25101 1.71744,0.2378 3.55378,0.72661 z"
         inkscape:connector-curvature="0" />
      <path
         id="path4566"
         style="font-style:normal;font-variant:normal;font-weight:bold;font-stretch:normal;font-family:sans-serif;-inkscape-font-specification:'sans-serif Bold'"
         d="m -595.31177,137.24469 4.75599,0 0,5.11269 -4.75599,0 0,-5.11269 z"
         inkscape:connector-curvature="0" />
      <path
         id="path4568"
         style="font-style:normal;font-variant:normal;font-weight:bold;font-stretch:normal;font-family:sans-serif;-inkscape-font-specification:'sans-serif Bold'"
         d="m -573.31533,138.76396 -7.95306,0 -1.25506,3.59342 -5.11268,0 7.30572,-19.72414 6.06389,0 7.30572,19.72414 -5.11269,0 -1.24184,-3.59342 z m -6.6848,-3.65946 5.40333,0 -2.69506,-7.84738 -2.70827,7.84738 z"
         inkscape:connector-curvature="0" />
      <path
         id="path4570"
         style="font-style:normal;font-variant:normal;font-weight:bold;font-stretch:normal;font-family:sans-serif;-inkscape-font-specification:'sans-serif Bold'"
         d="m -563.55235,137.24469 4.75599,0 0,5.11269 -4.75599,0 0,-5.11269 z"
         inkscape:connector-curvature="0" />
    </g>
  </g>
</svg>
