<svg xmlns="http://www.w3.org/2000/svg" xmlns:xlink="http://www.w3.org/1999/xlink" width="1518" zoomAndPan="magnify" viewBox="0 0 1138.5 587.999999" height="784" preserveAspectRatio="xMidYMid meet" version="1.0"><defs><clipPath id="0f9d74c84d"><path d="M 0 0.128906 L 1138 0.128906 L 1138 587.871094 L 0 587.871094 Z M 0 0.128906 " clip-rule="nonzero"/></clipPath><clipPath id="a5d60437f0"><path d="M 0 0.128906 L 1138 0.128906 L 1138 587.871094 L 0 587.871094 Z M 0 0.128906 " clip-rule="nonzero"/></clipPath><clipPath id="00b76083b5"><path d="M -1257.660156 -1021.21875 L 2201.789062 225.195312 L 1730.921875 1532.097656 L -1728.527344 285.6875 Z M -1257.660156 -1021.21875 " clip-rule="nonzero"/></clipPath><clipPath id="ec2126b22e"><path d="M -1257.660156 -1021.21875 L 2201.789062 225.195312 L 1730.921875 1532.097656 L -1728.527344 285.6875 Z M -1257.660156 -1021.21875 " clip-rule="nonzero"/></clipPath></defs><g clip-path="url(#0f9d74c84d)"><path fill="#ffffff" d="M 0 0.128906 L 1138 0.128906 L 1138 587.871094 L 0 587.871094 Z M 0 0.128906 " fill-opacity="1" fill-rule="nonzero"/><path fill="#ffffff" d="M 0 0.128906 L 1138 0.128906 L 1138 587.871094 L 0 587.871094 Z M 0 0.128906 " fill-opacity="1" fill-rule="nonzero"/></g><g clip-path="url(#a5d60437f0)"><g clip-path="url(#00b76083b5)"><g clip-path="url(#ec2126b22e)"><path fill="#ebebeb" d="M 1643.972656 190.015625 C 1643.972656 190.015625 1226.996094 -84.011719 75.464844 113.617188 C -1063.457031 309.0625 -1388.179688 -644.382812 -1388.179688 -644.382812 L -1605.976562 -46.960938 L 1348.601562 958.484375 L 1640.582031 211.140625 Z M 1643.972656 190.015625 " fill-opacity="1" fill-rule="nonzero"/><path fill="#444344" d="M -1389.386719 -648.109375 L -1629.515625 18.371094 L 1825.34375 1263.128906 L 2152.585938 354.859375 C 2152.585938 354.859375 1382.089844 -69.996094 186.046875 237.144531 C -1009.992188 544.289062 -1389.386719 -648.109375 -1389.386719 -648.109375 Z M -1389.386719 -648.109375 " fill-opacity="1" fill-rule="nonzero"/></g></g></g></svg>