<svg xmlns="http://www.w3.org/2000/svg" xmlns:xlink="http://www.w3.org/1999/xlink" width="1518" zoomAndPan="magnify" viewBox="0 0 1138.5 587.999999" height="784" preserveAspectRatio="xMidYMid meet" version="1.0"><defs><clipPath id="7f24dc5b9d"><path d="M 0 0.128906 L 1138 0.128906 L 1138 587.871094 L 0 587.871094 Z M 0 0.128906 " clip-rule="nonzero"/></clipPath><clipPath id="133138dda4"><path d="M 0 0.128906 L 1138 0.128906 L 1138 587.871094 L 0 587.871094 Z M 0 0.128906 " clip-rule="nonzero"/></clipPath><clipPath id="e9346acdf1"><path d="M -1929.824219 -760.828125 L 1748.996094 25.160156 L 1452.171875 1414.433594 L -2226.644531 628.441406 Z M -1929.824219 -760.828125 " clip-rule="nonzero"/></clipPath><clipPath id="44be81aeb6"><path d="M -1929.824219 -760.828125 L 1748.996094 25.160156 L 1452.171875 1414.433594 L -2226.644531 628.441406 Z M -1929.824219 -760.828125 " clip-rule="nonzero"/></clipPath></defs><g clip-path="url(#7f24dc5b9d)"><path fill="#ffffff" d="M 0 0.128906 L 1138 0.128906 L 1138 587.871094 L 0 587.871094 Z M 0 0.128906 " fill-opacity="1" fill-rule="nonzero"/><path fill="#ffffff" d="M 0 0.128906 L 1138 0.128906 L 1138 587.871094 L 0 587.871094 Z M 0 0.128906 " fill-opacity="1" fill-rule="nonzero"/></g><g clip-path="url(#133138dda4)"><g clip-path="url(#e9346acdf1)"><g clip-path="url(#44be81aeb6)"><path fill="#ebebeb" d="M 1178.679688 66.488281 C 1178.679688 66.488281 718.175781 -153.734375 -421.832031 205.53125 C -1549.359375 560.847656 -2010.121094 -360.828125 -2010.121094 -360.828125 L -2148.441406 274.832031 L 985.328125 886.238281 L 1178.15625 88.371094 Z M 1178.679688 66.488281 " fill-opacity="1" fill-rule="nonzero"/><path fill="#343434" d="M -2011.859375 -364.4375 L -2163.28125 344.304688 L 1510.640625 1129.25 L 1717 163.386719 C 1717 163.386719 877.324219 -160.9375 -292.6875 315.488281 C -1462.699219 791.910156 -2011.859375 -364.4375 -2011.859375 -364.4375 Z M -2011.859375 -364.4375 " fill-opacity="1" fill-rule="nonzero"/></g></g></g></svg>